<svg width="1254" height="465" viewBox="0 0 1254 465" fill="none" xmlns="http://www.w3.org/2000/svg">
<g clip-path="url(#clip0_74_562)">
<path d="M89.9244 190.107V136.156H0V459.861H89.9244V302.503C89.9244 247.262 109.836 210.663 154.153 210.663H207.459V136.156H170.86C131.682 136.156 107.276 149.639 89.9439 190.107H89.9244Z" fill="#092B55"/>
<path d="M1253.45 136.156H1163.53V459.861H1253.45V136.156Z" fill="#092B55"/>
<path d="M1253.45 0H1163.53V89.9244H1253.45V0Z" fill="#092B55"/>
<path d="M1095.37 241.322C1091.38 179.731 1040.15 131.018 977.561 131.018C975.744 131.018 973.926 131.076 972.129 131.154C971.503 131.174 970.898 131.213 970.272 131.252C969.178 131.311 968.103 131.408 967.029 131.487C906.004 136.723 865.107 185.574 865.107 185.574C844.14 152.766 807.385 130.998 765.549 130.998C727.25 130.998 693.211 149.229 671.658 177.484V136.137H581.733V459.822H671.658V267.819C671.658 234.112 698.975 206.775 732.682 206.775C766.389 206.775 793.726 234.112 793.726 267.819V459.822H883.631V267.819C883.631 234.112 910.968 206.775 944.675 206.775C978.382 206.775 1005.7 234.112 1005.7 267.819V459.822H1095.62V249.08C1095.62 246.462 1095.55 243.863 1095.35 241.303L1095.37 241.322Z" fill="#092B55"/>
<path d="M310.339 261.41H453.432C450.833 225.436 425.47 196.536 381.876 196.536C338.281 196.536 312.938 225.436 310.339 261.41ZM310.339 317.92C310.339 323.958 313.407 391.783 388.304 391.783C430.746 391.783 447.746 369.624 453.432 350.045L541.793 350.025C523.035 412.144 470.53 465 385.764 465C277.609 465 221.958 378.925 221.958 297.364C221.958 215.803 272.059 131.018 381.876 131.018C491.692 131.018 541.793 215.158 541.793 297.364V317.92H310.339Z" fill="#092B55"/>
</g>
<defs>
<clipPath id="clip0_74_562">
<rect width="1253.45" height="465" fill="white"/>
</clipPath>
</defs>
</svg>
